<svg version="1.2" baseProfile="tiny-ps" xmlns="http://www.w3.org/2000/svg" viewBox="0 0 1316 265" width="1316" height="265">
	<title>New Project</title>
	<style>
		tspan { white-space:pre }
		.shp0 { fill: #ffffff;stroke: #000000;stroke-width: 5.428 } 
	</style>
	<path id="Shape 1" class="shp0" d="M3 3L1313 3L1313 262L3 262L3 3Z" />
	<path id="e | c | o | m  " fill="#000000" aria-label="e | c | o | m "  d="M236.17 143.3C236.17 169.1 256.57 191 282.67 191L327.52 191L327.52 167.15L282.67 167.15C269.77 167.15 260.02 155.9 260.02 143.3C260.02 130.55 269.77 119.3 282.67 119.3L303.07 119.3C307.72 119.3 306.97 124.55 306.97 127.55C306.97 129.65 305.17 131.45 303.07 131.45L271.57 131.45L271.57 155.3L303.07 155.3C318.22 155.3 330.67 142.85 330.67 127.55L330.67 123.2C330.67 108.05 318.22 95.6 303.07 95.6L282.67 95.6C256.57 95.6 236.17 117.5 236.17 143.3ZM386.92 90.05L386.92 197L410.77 197L410.77 90.05ZM465.67 143.6C465.67 169.7 485.92 191 510.82 191L544.13 191L544.13 167.15L510.82 167.15C499.12 167.15 489.52 156.65 489.52 143.6C489.52 130.55 499.12 119.9 510.82 119.9L544.13 119.9L544.13 96.05L510.82 96.05C485.92 96.05 465.67 117.35 465.67 143.6ZM601.72 90.05L601.72 197L625.57 197L625.57 90.05ZM730.72 93.95C703.27 93.95 681.82 116.9 681.82 144.05C681.82 171.05 703.27 194.15 730.72 194.15C758.17 194.15 779.47 171.05 779.47 144.05C779.47 116.9 758.17 93.95 730.72 93.95ZM730.72 170.45C716.17 170.45 705.38 158 705.38 144.05C705.38 129.95 716.32 117.5 730.72 117.5C745.13 117.5 755.92 129.95 755.92 144.05C755.92 158 745.13 170.45 730.72 170.45ZM835.72 90.05L835.72 197L859.57 197L859.57 90.05ZM1008.22 93.5C997.88 93.5 988.42 97.7 981.38 104.45C974.47 97.7 965.02 93.5 954.52 93.5C933.22 93.5 915.82 110.9 915.82 132.35L915.82 191L939.67 191L939.67 132.35C939.67 124.1 946.27 117.35 954.52 117.35C962.77 117.35 969.52 124.1 969.52 132.35L969.52 191L993.38 191L993.38 132.35C993.38 124.1 999.97 117.35 1008.22 117.35C1016.47 117.35 1023.22 124.1 1023.22 132.35L1023.22 191L1047.07 191L1047.07 132.35C1047.07 110.9 1029.67 93.5 1008.22 93.5Z" />
</svg>