<svg version="1.2" baseProfile="tiny-ps" xmlns="http://www.w3.org/2000/svg" viewBox="0 0 1316 265" width="1316" height="265">
	<title>New Project</title>
	<style>
		tspan { white-space:pre }
		.shp0 { fill: #ffffff;stroke: #000000;stroke-width: 5.428 } 
	</style>
	<path id="Shape 1" class="shp0" d="M3 3L1313 3L1313 262L3 262L3 3Z" />
	<path id="e | c | o | m  " fill="#000000" aria-label="e | c | o | m "  d="M53.59 133.04C53.59 170.88 83.51 203 121.79 203L187.57 203L187.57 168.02L121.79 168.02C102.87 168.02 88.57 151.52 88.57 133.04C88.57 114.34 102.87 97.84 121.79 97.84L151.71 97.84C158.53 97.84 157.43 105.54 157.43 109.94C157.43 113.02 154.79 115.66 151.71 115.66L105.51 115.66L105.51 150.64L151.71 150.64C173.93 150.64 192.19 132.38 192.19 109.94L192.19 103.56C192.19 81.34 173.93 63.08 151.71 63.08L121.79 63.08C83.51 63.08 53.59 95.2 53.59 133.04ZM274.69 54.94L274.69 211.8L309.67 211.8L309.67 54.94ZM390.19 133.48C390.19 171.76 419.89 203 456.41 203L505.25 203L505.25 168.02L456.41 168.02C439.25 168.02 425.17 152.62 425.17 133.48C425.17 114.34 439.25 98.72 456.41 98.72L505.25 98.72L505.25 63.74L456.41 63.74C419.89 63.74 390.19 94.98 390.19 133.48ZM589.73 54.94L589.73 211.8L624.71 211.8L624.71 54.94ZM778.93 60.66C738.67 60.66 707.21 94.32 707.21 134.14C707.21 173.74 738.67 207.62 778.93 207.62C819.19 207.62 850.43 173.74 850.43 134.14C850.43 94.32 819.19 60.66 778.93 60.66ZM778.93 172.86C757.59 172.86 741.75 154.6 741.75 134.14C741.75 113.46 757.81 95.2 778.93 95.2C800.05 95.2 815.89 113.46 815.89 134.14C815.89 154.6 800.05 172.86 778.93 172.86ZM932.93 54.94L932.93 211.8L967.91 211.8L967.91 54.94ZM1185.93 60C1170.75 60 1156.89 66.16 1146.55 76.06C1136.43 66.16 1122.57 60 1107.17 60C1075.93 60 1050.41 85.52 1050.41 116.98L1050.41 203L1085.39 203L1085.39 116.98C1085.39 104.88 1095.07 94.98 1107.17 94.98C1119.27 94.98 1129.17 104.88 1129.17 116.98L1129.17 203L1164.15 203L1164.15 116.98C1164.15 104.88 1173.83 94.98 1185.93 94.98C1198.03 94.98 1207.93 104.88 1207.93 116.98L1207.93 203L1242.91 203L1242.91 116.98C1242.91 85.52 1217.39 60 1185.93 60Z" />
</svg>