<svg version="1.2" baseProfile="tiny-ps" xmlns="http://www.w3.org/2000/svg" viewBox="0 0 1920 1080" width="1920" height="1080">
	<title>New Project</title>
	<style>
		tspan { white-space:pre }
		.shp0 { fill: #ffffff;stroke: #000000;stroke-width: 5.428 } 
	</style>
	<path id="Shape 1" class="shp0" d="M352 410L1662 410L1662 669L352 669L352 410Z" />
	<path id="e | c | o | m | m " fill="#000000" aria-label="e | c | o | m | m"  d="M401.05 554.3C401.05 580.1 421.45 602 447.55 602L492.4 602L492.4 578.15L447.55 578.15C434.65 578.15 424.9 566.9 424.9 554.3C424.9 541.55 434.65 530.3 447.55 530.3L467.95 530.3C472.6 530.3 471.85 535.55 471.85 538.55C471.85 540.65 470.05 542.45 467.95 542.45L436.45 542.45L436.45 566.3L467.95 566.3C483.1 566.3 495.55 553.85 495.55 538.55L495.55 534.2C495.55 519.05 483.1 506.6 467.95 506.6L447.55 506.6C421.45 506.6 401.05 528.5 401.05 554.3ZM582.1 602L572.27 602L572.27 473L582.1 473L582.1 602ZM657.4 554.6C657.4 580.7 677.65 602 702.55 602L735.85 602L735.85 578.15L702.55 578.15C690.85 578.15 681.25 567.65 681.25 554.6C681.25 541.55 690.85 530.9 702.55 530.9L735.85 530.9L735.85 507.05L702.55 507.05C677.65 507.05 657.4 528.35 657.4 554.6ZM823.75 602L813.92 602L813.92 473L823.75 473L823.75 602ZM949.3 504.95C921.85 504.95 900.4 527.9 900.4 555.05C900.4 582.05 921.85 605.15 949.3 605.15C976.75 605.15 998.05 582.05 998.05 555.05C998.05 527.9 976.75 504.95 949.3 504.95ZM949.3 581.45C934.75 581.45 923.95 569 923.95 555.05C923.95 540.95 934.9 528.5 949.3 528.5C963.7 528.5 974.5 540.95 974.5 555.05C974.5 569 963.7 581.45 949.3 581.45ZM1084.6 602L1074.77 602L1074.77 473L1084.6 473L1084.6 602ZM1253.65 504.5C1243.3 504.5 1233.85 508.7 1226.8 515.45C1219.9 508.7 1210.45 504.5 1199.95 504.5C1178.65 504.5 1161.25 521.9 1161.25 543.35L1161.25 602L1185.1 602L1185.1 543.35C1185.1 535.1 1191.7 528.35 1199.95 528.35C1208.2 528.35 1214.95 535.1 1214.95 543.35L1214.95 602L1238.8 602L1238.8 543.35C1238.8 535.1 1245.4 528.35 1253.65 528.35C1261.9 528.35 1268.65 535.1 1268.65 543.35L1268.65 602L1292.5 602L1292.5 543.35C1292.5 521.9 1275.1 504.5 1253.65 504.5ZM1379.05 602L1369.22 602L1369.22 473L1379.05 473L1379.05 602ZM1548.1 504.5C1537.75 504.5 1528.3 508.7 1521.25 515.45C1514.35 508.7 1504.9 504.5 1494.4 504.5C1473.1 504.5 1455.7 521.9 1455.7 543.35L1455.7 602L1479.55 602L1479.55 543.35C1479.55 535.1 1486.15 528.35 1494.4 528.35C1502.65 528.35 1509.4 535.1 1509.4 543.35L1509.4 602L1533.25 602L1533.25 543.35C1533.25 535.1 1539.85 528.35 1548.1 528.35C1556.35 528.35 1563.1 535.1 1563.1 543.35L1563.1 602L1586.95 602L1586.95 543.35C1586.95 521.9 1569.55 504.5 1548.1 504.5Z" />
</svg>